<svg width="512" height="512" viewBox="0 0 512 512" fill="none" xmlns="http://www.w3.org/2000/svg">
  <rect width="512" height="512" rx="124" fill="#FF7B00"/>
  <path d="M104 168C104 123.817 139.817 88 184 88H328C372.183 88 408 123.817 408 168V344C408 388.183 372.183 424 328 424H184C139.817 424 104 388.183 104 344V168Z" fill="#0D5C45"/>
  <path d="M158 171H231C287.333 171 321 201.333 321 256C321 310.667 287.333 341 231 341H158V171ZM226 295C250.667 295 264 282 264 256C264 230 250.667 217 226 217H214V295H226Z" fill="white"/>
  <path d="M310 171H356L392 341H338L333 308H298L293 341H243L278 171H310ZM326 266L316 209L306 266H326Z" fill="white"/>
</svg>
